<svg xmlns="http://www.w3.org/2000/svg" id="그룹_514" width="76" height="21" viewBox="0 0 76 21">
    <defs>
        <clipPath id="clip-path">
            <path id="사각형_362" fill="none" d="M0 0H76V21H0z"/>
        </clipPath>
        <style>
            .cls-3{fill:#0f84f7}
        </style>
    </defs>
    <g id="그룹_513" clip-path="url(#clip-path)">
        <path id="패스_1520" d="M11.616 7.673q1.638.59.986 2.767l-.91 3.044a4.385 4.385 0 0 1-4.5 3.49L0 17.03 5.076.055 12.04 0q3.469-.027 2.433 3.436l-.463 1.548a3.717 3.717 0 0 1-2.395 2.688M10.316 2.5l-2.07.016-1.357 4.539 2.07-.016a.686.686 0 0 0 .425-.16.745.745 0 0 0 .263-.368l1.044-3.49a.415.415 0 0 0-.044-.366.37.37 0 0 0-.331-.155M7.65 13.934l1.137-3.8a.41.41 0 0 0-.044-.366.37.37 0 0 0-.331-.155l-2.292.014-1.452 4.854 2.293-.018a.684.684 0 0 0 .425-.16.737.737 0 0 0 .264-.368" class="cls-3"/>
        <path id="패스_1521" d="M162.46 77.094l-.84 2.808-9.539.075.84-2.808z" class="cls-3" transform="translate(-136.698 -69.322)"/>
        <path id="패스_1522" d="M250.685 50.129h-.587a3 3 0 0 1-2.105-.612l-1.357 4.539-3.748.029 5.076-16.976 3.161-.025-.282.944a4.465 4.465 0 0 1 3.242-1.23h.587q3.469-.027 2.433 3.436l-1.914 6.4a4.386 4.386 0 0 1-4.5 3.491m.195-10.263l-2.165 7.242a.41.41 0 0 0 .044.366.368.368 0 0 0 .331.155l1.539-.012a.686.686 0 0 0 .425-.16.745.745 0 0 0 .263-.368l2.166-7.242a.414.414 0 0 0-.044-.366.369.369 0 0 0-.331-.155l-1.539.012a.684.684 0 0 0-.425.16.739.739 0 0 0-.264.368" class="cls-3" transform="translate(-218.319 -33.09)"/>
        <path id="패스_1523" d="M397.358 36.258l3.161-.025-3.829 12.8-3.161.025.282-.944a4.466 4.466 0 0 1-3.243 1.23h-.587q-3.468.027-2.432-3.437l1.914-6.4a4.385 4.385 0 0 1 4.5-3.49h.587q2.02-.017 2.526 1.183zm-3.584 10.027l2.165-7.242a.414.414 0 0 0-.044-.366.37.37 0 0 0-.331-.155l-1.539.012a.683.683 0 0 0-.425.16.738.738 0 0 0-.263.368l-2.165 7.242a.41.41 0 0 0 .044.366.368.368 0 0 0 .331.155l1.539-.012a.687.687 0 0 0 .425-.16.746.746 0 0 0 .263-.368" class="cls-3" transform="translate(-348.133 -32.387)"/>
        <path id="패스_1524" d="M519.164 39.9q3.469-.027 2.433 3.437l-.407 1.363a4.385 4.385 0 0 1-4.5 3.491l-3.1.024q-3.468.027-2.432-3.437l.243-.813 3.468-.027-.345 1.154a.408.408 0 0 0 .045.367.366.366 0 0 0 .33.154l2.294-.018a.683.683 0 0 0 .424-.16.743.743 0 0 0 .265-.369l.471-1.574a.411.411 0 0 0-.045-.366.368.368 0 0 0-.33-.155l-2.892.029q-3.467.027-2.432-3.436l.353-1.181a4.385 4.385 0 0 1 4.5-3.49l2.938-.023q3.467-.027 2.432 3.436l-.141.472-3.468.027.243-.814a.415.415 0 0 0-.044-.366.371.371 0 0 0-.331-.155l-2.126.017a.687.687 0 0 0-.425.16.74.74 0 0 0-.263.368l-.416 1.391a.412.412 0 0 0 .044.367.37.37 0 0 0 .331.154z" class="cls-3" transform="translate(-459.229 -31.353)"/>
        <path id="패스_1525" d="M638.893 38.964q3.469-.027 2.433 3.437l-.408 1.364a4.385 4.385 0 0 1-4.5 3.491l-3.1.024q-3.467.027-2.432-3.437l.243-.813 3.459-.03-.345 1.154a.408.408 0 0 0 .045.367.366.366 0 0 0 .33.154l2.294-.018a.683.683 0 0 0 .424-.16.743.743 0 0 0 .265-.369l.471-1.574a.412.412 0 0 0-.045-.366.368.368 0 0 0-.33-.155l-2.882.022q-3.467.027-2.432-3.436l.353-1.181a4.385 4.385 0 0 1 4.5-3.49l2.938-.023q3.467-.027 2.432 3.436l-.141.472-3.465.031.243-.813a.415.415 0 0 0-.044-.366.371.371 0 0 0-.331-.155l-2.126.017a.687.687 0 0 0-.425.16.741.741 0 0 0-.263.368l-.416 1.391a.411.411 0 0 0 .044.367.37.37 0 0 0 .331.154z" class="cls-3" transform="translate(-566.847 -30.508)"/>
    </g>
</svg>
