<svg xmlns="http://www.w3.org/2000/svg" width="244.772" height="106.091" viewBox="0 0 244.772 106.091">
    <defs>
        <clipPath id="clip-path">
            <path id="사각형_356" d="M0 0H244.772V70.22H0z" class="cls-1"/>
        </clipPath>
        <clipPath id="clip-path-2">
            <path id="사각형_355" d="M0 0H244.771V70.22H0z" class="cls-1"/>
        </clipPath>
        <clipPath id="clip-path-3">
            <path id="사각형_348" d="M0 0H18.152V12.584H0z" class="cls-1"/>
        </clipPath>
        <clipPath id="clip-path-5">
            <path id="사각형_350" d="M0 0H18.152V12.585H0z" class="cls-1"/>
        </clipPath>
        <style>
            .cls-1{fill:none}.cls-4{fill:#0f84f7}.cls-5{opacity:.5}.cls-6{clip-path:url(#clip-path-3)}.cls-7{clip-path:url(#clip-path-5)}.cls-8{opacity:.2}
        </style>
    </defs>
    <g id="그룹_510" transform="translate(-58 -214.909)">
        <g id="그룹_498" transform="translate(58 214.909)">
            <g id="그룹_497" clip-path="url(#clip-path)">
                <g id="그룹_496">
                    <g id="그룹_495" clip-path="url(#clip-path-2)">
                        <path id="패스_1499" d="M630.853 215.343q4.22 1.524 2.541 7.155l-2.345 7.87q-2.668 8.955-11.6 9.025l-18.524.146L614 195.645l17.946-.141q8.939-.07 6.271 8.885l-1.193 4q-1.618 5.429-6.171 6.952m-3.35-13.375l-5.335.042-3.5 11.737 5.335-.042a1.763 1.763 0 0 0 1.095-.415 1.922 1.922 0 0 0 .679-.953l2.689-9.023a1.075 1.075 0 0 0-.113-.947.952.952 0 0 0-.852-.4m-6.87 29.564l2.931-9.837a1.066 1.066 0 0 0-.113-.947.952.952 0 0 0-.852-.4l-5.91.046-3.74 12.551 5.91-.047a1.758 1.758 0 0 0 1.095-.415 1.905 1.905 0 0 0 .679-.953" class="cls-4" transform="translate(-551.986 -179.583)"/>
                        <path id="패스_1500" d="M1114.466 442.275l-2.163 7.26-24.58.193 2.164-7.26z" class="cls-4" transform="translate(-999.149 -406.26)"/>
                        <path id="패스_1501" d="M1398.48 347.763l-1.513.012q-3.673.029-5.424-1.582l-3.5 11.737-9.658.076 13.08-43.894 8.144-.064-.727 2.442a11.484 11.484 0 0 1 8.353-3.179l1.513-.012q8.939-.07 6.271 8.885l-4.933 16.554q-2.669 8.957-11.608 9.027m.5-26.537l-5.58 18.725a1.064 1.064 0 0 0 .113.946.948.948 0 0 0 .852.4l3.965-.031a1.764 1.764 0 0 0 1.095-.415 1.927 1.927 0 0 0 .679-.953l5.58-18.725a1.073 1.073 0 0 0-.113-.947.952.952 0 0 0-.852-.4l-3.965.031a1.758 1.758 0 0 0-1.1.415 1.907 1.907 0 0 0-.679.953" class="cls-4" transform="translate(-1266.144 -287.785)"/>
                        <path id="패스_1502" d="M1866.565 311.416l8.145-.064-9.866 33.108-8.144.064.728-2.442a11.486 11.486 0 0 1-8.356 3.179l-1.513.012q-8.935.07-6.267-8.887l4.933-16.554q2.668-8.955 11.6-9.026l1.513-.012q5.191-.041 6.5 3.063zm-9.236 25.928l5.58-18.725a1.072 1.072 0 0 0-.113-.946.952.952 0 0 0-.852-.4l-3.965.031a1.758 1.758 0 0 0-1.1.415 1.91 1.91 0 0 0-.679.953l-5.58 18.725a1.063 1.063 0 0 0 .113.947.949.949 0 0 0 .852.4l3.965-.031a1.766 1.766 0 0 0 1.1-.415 1.928 1.928 0 0 0 .679-.953" class="cls-4" transform="translate(-1690.789 -285.486)"/>
                        <path id="패스_1503" d="M2257.579 320.137q8.939-.07 6.27 8.886l-1.051 3.527q-2.669 8.957-11.609 9.027l-8 .063q-8.936.07-6.268-8.887l.627-2.1 8.936-.07-.89 2.984a1.059 1.059 0 0 0 .115.948.943.943 0 0 0 .85.4l5.913-.046a1.753 1.753 0 0 0 1.092-.413 1.922 1.922 0 0 0 .682-.954l1.213-4.07a1.065 1.065 0 0 0-.116-.946.945.945 0 0 0-.849-.4l-7.426.058q-8.935.07-6.268-8.885l.91-3.053q2.668-8.955 11.6-9.025l7.57-.059q8.935-.07 6.268 8.885l-.364 1.222-8.936.07.627-2.1a1.078 1.078 0 0 0-.113-.947.957.957 0 0 0-.853-.4l-5.478.043a1.763 1.763 0 0 0-1.1.415 1.914 1.914 0 0 0-.679.953l-1.071 3.6a1.067 1.067 0 0 0 .113.948.951.951 0 0 0 .852.4z" class="cls-4" transform="translate(-2054.203 -282.107)"/>
                        <path id="패스_1504" d="M2640.82 317.127q8.939-.07 6.27 8.886l-1.051 3.527q-2.669 8.957-11.608 9.027l-8 .063q-8.934.07-6.267-8.887l.626-2.1 8.936-.07-.889 2.984a1.058 1.058 0 0 0 .115.948.944.944 0 0 0 .85.4l5.913-.046a1.756 1.756 0 0 0 1.092-.413 1.92 1.92 0 0 0 .682-.954l1.213-4.07a1.066 1.066 0 0 0-.116-.946.946.946 0 0 0-.849-.4l-7.426.058q-8.936.07-6.268-8.885l.91-3.053q2.669-8.955 11.6-9.026l7.569-.059q8.936-.07 6.268 8.885l-.364 1.222-8.936.07.627-2.1a1.077 1.077 0 0 0-.113-.946.956.956 0 0 0-.853-.4l-5.479.043a1.766 1.766 0 0 0-1.095.415 1.919 1.919 0 0 0-.679.953l-1.072 3.6a1.068 1.068 0 0 0 .113.948.952.952 0 0 0 .853.4z" class="cls-4" transform="translate(-2406.237 -279.342)"/>
                        <path id="패스_1505" d="M542.581 12.585h-14.249L532.235 0h14.249z" class="cls-4" transform="translate(-485.309)"/>
                        <g id="그룹_476" class="cls-5" transform="translate(26.053)">
                            <g id="그룹_475">
                                <g id="그룹_474" class="cls-6">
                                    <path id="패스_1506" d="M334.188 12.585h-14.249L323.842 0h14.249z" class="cls-4" transform="translate(-319.939)"/>
                                </g>
                            </g>
                        </g>
                        <g id="그룹_479" class="cls-5" transform="translate(9.068)">
                            <g id="그룹_478">
                                <g id="그룹_477" class="cls-6">
                                    <path id="패스_1507" d="M125.612 12.585h-14.249L115.266 0h14.249z" class="cls-4" transform="translate(-111.363)"/>
                                </g>
                            </g>
                        </g>
                        <g id="그룹_482" class="cls-5" transform="translate(38.553 15.243)">
                            <g id="그룹_481">
                                <g id="그룹_480" class="cls-7">
                                    <path id="패스_1508" d="M487.7 199.772h-14.253l3.9-12.584H491.6z" class="cls-4" transform="translate(-473.447 -187.188)"/>
                                </g>
                            </g>
                        </g>
                        <g id="그룹_485" class="cls-8" transform="translate(4.599 15.243)">
                            <g id="그룹_484">
                                <g id="그룹_483" class="cls-7">
                                    <path id="패스_1509" d="M70.727 199.772H56.479l3.9-12.584H74.63z" class="cls-4" transform="translate(-56.479 -187.188)"/>
                                </g>
                            </g>
                        </g>
                        <g id="그룹_488" class="cls-5" transform="translate(33.954 30.486)">
                            <g id="그룹_487">
                                <g id="그룹_486" class="cls-6">
                                    <path id="패스_1510" d="M431.219 386.96H416.97l3.9-12.584h14.249z" class="cls-4" transform="translate(-416.97 -374.375)"/>
                                </g>
                            </g>
                        </g>
                        <g id="그룹_491" class="cls-8" transform="translate(16.985 30.486)">
                            <g id="그룹_490">
                                <g id="그룹_489" class="cls-6">
                                    <path id="패스_1511" d="M222.825 386.96h-14.249l3.9-12.584h14.249z" class="cls-4" transform="translate(-208.576 -374.375)"/>
                                </g>
                            </g>
                        </g>
                        <g id="그룹_494" class="cls-8" transform="translate(0 30.486)">
                            <g id="그룹_493">
                                <g id="그룹_492" class="cls-6">
                                    <path id="패스_1512" d="M14.249 386.96H0l3.9-12.584h14.252z" class="cls-4" transform="translate(0 -374.375)"/>
                                </g>
                            </g>
                        </g>
                    </g>
                </g>
            </g>
        </g>
        <text id="_01_text_1" fill="#878787" font-family="NotoSansCJKkr-Regular, Noto Sans CJK KR" font-size="16px" transform="translate(89 316)">
            <tspan x="0" y="0">Beacon · </tspan><tspan y="0">무선 스마트 패스</tspan>
        </text>
    </g>
</svg>
